Coordinates
version=1
nRows=35
nColumns=18
inDegrees=yes

Units are S.I. units (second, meters, Newtons, ...)
If the header above contains a line with 'inDegrees', this indicates whether rotational values are in degrees (yes) or radians (no).

endheader
time	ground_thorax_rot_x	ground_thorax_rot_y	ground_thorax_rot_z	ground_thorax_tx	ground_thorax_ty	ground_thorax_tz	clav_prot	clav_elev	scapula_abduction	scapula_elevation	scapula_upward_rot	scapula_winging	plane_elv	shoulder_elv	axial_rot	elbow_flexion	pro_sup
      1.00000000	      0.51728761	     -7.04384962	    -11.04849483	     -0.03514288	      0.00847768	      0.01626616	    -19.46458352	    -19.53054427	    -16.83283141	    -14.91831742	     12.46937244	     22.34277537	    -26.00000000	     36.46261927	     39.14838558	     25.63711470	   -170.18019607
      1.02000000	      0.51728761	     -7.15926963	    -10.80810640	     -0.03625799	      0.00937437	      0.01617280	    -19.57818592	    -19.21864777	    -16.55290588	    -14.89066495	     13.30741723	     22.00144542	    -26.00000000	     37.36929186	     38.63274731	     25.80589494	   -170.06398947
      1.04000000	      0.51728761	     -7.22656059	    -10.53749696	     -0.03741748	      0.01036673	      0.01611537	    -19.76989156	    -18.92380738	    -16.36616401	    -14.89043404	     14.19394997	     21.67686627	    -26.00000000	     38.28717146	     38.19564724	     25.98722151	   -169.96156700
      1.06000000	      0.51728761	     -7.35932853	    -10.27194169	     -0.03856198	      0.01134194	      0.01601795	    -19.85150808	    -18.57569605	    -15.95731794	    -14.85485948	     15.13128673	     21.28655373	    -26.00000000	     39.24915508	     37.26937631	     26.09800615	   -169.75808000
      1.08000000	      0.51728761	     -7.40750710	     -9.94068208	     -0.03974043	      0.01238328	      0.01597660	    -20.07188286	    -18.21682122	    -15.73904909	    -14.83339256	     16.13935649	     20.90296364	    -26.00000000	     40.15665736	     36.63605054	     26.25854501	   -169.62713383
      1.10000000	      0.51728761	     -7.49271913	     -9.62502573	     -0.04091706	      0.01345918	      0.01590875	    -20.21645736	    -17.82373988	    -15.34007025	    -14.79553898	     17.21298499	     20.47056222	    -26.00000000	     41.07583088	     35.59397031	     26.31473600	   -169.44137107
      1.12000000	      0.51728761	     -7.56699311	     -9.27135944	     -0.04210520	      0.01458392	      0.01584579	    -20.37172368	    -17.42361852	    -14.93373822	    -14.75624938	     18.31122854	     20.03181434	    -26.00000000	     42.01617610	     34.52797902	     26.35650033	   -169.21796356
      1.14000000	      0.51728761	     -7.66390865	     -8.90660384	     -0.04326315	      0.01574566	      0.01580538	    -20.50806392	    -17.01245862	    -14.45200341	    -14.71548702	     19.45558952	     19.57481727	    -26.00000000	     42.95833110	     33.30075798	     26.35871590	   -168.92165512
      1.16000000	      0.51728761	     -7.74168503	     -8.51876866	     -0.04443378	      0.01694927	      0.01576339	    -20.64365593	    -16.56665801	    -13.93547770	    -14.65561042	     20.64245349	     19.09016689	    -26.00000000	     43.88826309	     32.02659758	     26.33551793	   -168.57181506
      1.18000000	      0.51728761	     -7.78769958	     -8.09641144	     -0.04561281	      0.01817434	      0.01572703	    -20.81056150	    -16.06223739	    -13.41121332	    -14.57043868	     21.91856774	     18.56066125	    -26.00000000	     44.73561813	     30.80374081	     26.25643094	   -168.30078766
      1.20000000	      0.51728761	     -7.88210531	     -7.68639883	     -0.04674329	      0.01941391	      0.01571842	    -20.91803584	    -15.55637254	    -12.76051074	    -14.47930358	     23.20354358	     18.02210184	    -26.00000000	     45.63067272	     29.41937958	     26.17859766	   -167.95780947
      1.22000000	      0.51728761	     -7.94123801	     -7.23389669	     -0.04792868	      0.02071168	      0.01571418	    -21.04970435	    -14.99668964	    -12.10274437	    -14.35990392	     24.55401437	     17.44774164	    -26.00000000	     46.45274991	     28.14135606	     26.02895360	   -167.67510453
      1.24000000	      0.51728761	     -8.04413969	     -6.79443511	     -0.04905086	      0.02198513	      0.01574064	    -21.13322837	    -14.42168658	    -11.33644519	    -14.22546845	     25.91883507	     16.85992046	    -26.00000000	     47.29627301	     26.78716548	     25.88735982	   -167.35595701
      1.26000000	      0.51728761	     -8.14896532	     -6.34486995	     -0.05017394	      0.02329637	      0.01580590	    -21.21149945	    -13.81848166	    -10.52733194	    -14.07192054	     27.31525477	     16.25622498	    -26.00000000	     48.11114767	     25.51318911	     25.72723743	   -167.06183569
      1.28000000	      0.51728761	     -8.24097390	     -5.87652452	     -0.05131039	      0.02462501	      0.01587862	    -21.28767851	    -13.18290321	     -9.68508928	    -13.89508932	     28.73865344	     15.63730258	    -26.00000000	     48.89604579	     24.34982052	     25.50935914	   -166.82878784
      1.30000000	      0.51728761	     -8.41474213	     -5.41945265	     -0.05241543	      0.02598092	      0.01601192	    -21.26933716	    -12.57399642	     -8.71390900	    -13.71271045	     30.08427492	     15.04310554	    -26.00000000	     49.76416758	     22.99981915	     25.33344623	   -166.46972909
      1.32000000	      0.51728761	     -8.54032728	     -4.95756899	     -0.05350188	      0.02730694	      0.01617094	    -21.32142610	    -11.90141047	     -7.78708835	    -13.50124210	     31.52987894	     14.41646428	    -26.00000000	     50.50273066	     22.02679709	     25.12829382	   -166.28111576
      1.34000000	      0.51728761	     -8.72245033	     -4.49827739	     -0.05459024	      0.02864431	      0.01635717	    -21.28717824	    -11.24299729	     -6.75770868	    -13.27470197	     32.88958809	     13.81246258	    -26.00000000	     51.31911789	     20.94282405	     24.93228868	   -166.05510714
      1.36000000	      0.51728761	     -8.87190433	     -4.03605774	     -0.05565635	      0.02994134	      0.01657889	    -21.32813491	    -10.53591679	     -5.77684872	    -13.02783074	     34.34670419	     13.18910585	    -26.00000000	     51.98799236	     20.24521228	     24.70480502	   -166.00557280
      1.38000000	      0.51728761	     -9.10745764	     -3.58725076	     -0.05669963	      0.03127342	      0.01681826	    -21.23210412	     -9.89197373	     -4.67299821	    -12.78295556	     35.62329892	     12.62392502	    -26.00000000	     52.82594952	     19.31086921	     24.53143682	   -165.88483830
      1.40000000	      0.51728761	     -9.31077360	     -3.14683114	     -0.05768609	      0.03255502	      0.01710017	    -21.22652477	     -9.20639225	     -3.64806934	    -12.52168334	     36.99153678	     12.04828898	    -26.00000000	     53.49639316	     18.75499274	     24.33505964	   -165.87495841
      1.42000000	      0.51728761	     -9.53946211	     -2.71475002	     -0.05865347	      0.03384363	      0.01738288	    -21.17076576	     -8.54466364	     -2.59488289	    -12.25417939	     38.26587000	     11.50730749	    -26.00000000	     54.21114871	     18.21041927	     24.16254648	   -165.86972813
      1.44000000	      0.51728761	     -9.74356405	     -2.27022051	     -0.05964423	      0.03511235	      0.01762830	    -21.12525039	     -7.88345304	     -1.58311278	    -11.97580456	     39.49965945	     10.98837133	    -26.00000000	     54.89010673	     17.74881695	     23.96837067	   -165.87437329
      1.46000000	      0.51728761	    -10.03792317	     -1.84314402	     -0.06054743	      0.03639524	      0.01789005	    -20.98977689	     -7.28529221	     -0.49259407	    -11.71406339	     40.60863667	     10.51946588	    -26.00000000	     55.63750118	     17.25571730	     23.83178146	   -165.87544219
      1.48000000	      0.51728761	    -10.04106141	     -1.44717530	     -0.06149796	      0.03770041	      0.01800607	    -21.07382896	     -6.74953702	      0.20871483	    -11.49587590	     41.69582549	     10.12449613	    -26.00000000	     56.32672506	     17.04018346	     23.69153371	   -165.86786467
      1.50000000	      0.51728761	    -10.52049668	     -0.98481552	     -0.06232002	      0.03887086	      0.01830291	    -20.79148901	     -6.09977355	      1.46878222	    -11.17018738	     42.69353150	      9.65217044	    -26.00000000	     56.97532215	     16.55939970	     23.53762676	   -165.89262137
      1.52000000	      0.51728761	    -10.63065977	     -0.56831708	     -0.06315696	      0.04005446	      0.01845173	    -20.83251661	     -5.50575079	      2.20506190	    -10.89592018	     43.73098558	      9.25697024	    -26.00000000	     57.47449225	     16.40725499	     23.41640552	   -165.89680819
      1.54000000	      0.51728761	    -10.83546519	     -0.15561233	     -0.06392530	      0.04118055	      0.01856715	    -20.79415773	     -4.92056510	      3.02572997	    -10.61142014	     44.69306301	      8.87657467	    -26.00000000	     57.96123674	     16.25405751	     23.28665326	   -165.90037632
      1.56000000	      0.51728761	    -11.03287690	      0.26054627	     -0.06464722	      0.04230073	      0.01866990	    -20.74286019	     -4.37063264	      3.80256649	    -10.33652755	     45.56577868	      8.53177338	    -26.00000000	     58.43373789	     16.13777161	     23.15348416	   -165.90826241
      1.58000000	      0.51728761	    -11.24809963	      0.66974399	     -0.06534038	      0.04337147	      0.01870186	    -20.66095827	     -3.84848035	      4.57836724	    -10.06808960	     46.36407902	      8.21311197	    -26.00000000	     58.89199226	     16.07292214	     23.01484407	   -165.93625218
      1.60000000	      0.51728761	    -11.45147338	      1.06469659	     -0.06597817	      0.04441079	      0.01868873	    -20.55813211	     -3.38215557	      5.32438624	     -9.82418181	     47.07029541	      7.93281563	    -26.00000000	     59.36832454	     16.12209745	     22.85404598	   -166.04769491
      1.62000000	      0.51728761	    -11.50057567	      1.44992842	     -0.06659889	      0.04538961	      0.01864813	    -20.62526100	     -2.87509416	      5.79903969	     -9.56206322	     47.82235875	      7.66414855	    -26.00000000	     59.64208510	     16.13622553	     22.71798012	   -166.09762001
      1.64000000	      0.51728761	    -11.60717613	      1.83551109	     -0.06716303	      0.04628427	      0.01862217	    -20.65563819	     -2.37038703	      6.30752918	     -9.29391188	     48.53424716	      7.40427062	    -26.00000000	     59.84862726	     16.21805688	     22.55048567	   -166.18312017
      1.66000000	      0.51728761	    -11.69804755	      2.19741995	     -0.06767962	      0.04712417	      0.01858562	    -20.68369501	     -1.90645417	      6.77453701	     -9.04496804	     49.18406524	      7.17331516	    -26.00000000	     60.03949484	     16.36695652	     22.37154370	   -166.30727212
      1.68000000	      0.51728761	    -11.78937052	      2.54986402	     -0.06815073	      0.04789688	      0.01855713	    -20.71050021	     -1.45964068	      7.20989065	     -8.80178248	     49.79086888	      6.95966638	    -26.00000000	     60.17726348	     16.59955350	     22.17804815	   -166.49562522
